<?xml version="1.0" encoding="UTF-8" standalone="no"?><!DOCTYPE svg PUBLIC "-//W3C//DTD SVG 1.1//EN" "http://www.w3.org/Graphics/SVG/1.1/DTD/svg11.dtd"><svg width="100%" height="100%" viewBox="0 0 520 51" version="1.1" xmlns="http://www.w3.org/2000/svg" xmlns:xlink="http://www.w3.org/1999/xlink" xml:space="preserve" style="fill-rule:evenodd;clip-rule:evenodd;stroke-linejoin:round;stroke-miterlimit:1.41421;"><text id="text584" x="153.347px" y="16.396px" style="font-family:'OpenSans-Semibold', 'Open Sans', sans-serif;font-weight:600;font-size:15px;">The</text><text id="text587" x="186.037px" y="26.273px" style="font-family:'OpenSans-Semibold', 'Open Sans', sans-serif;font-weight:600;font-size:28px;">Apache T<tspan x="307.73px 325.504px " y="26.273px 26.273px ">ur</tspan>bine™ Pr<tspan x="454.088px 471.191px " y="26.273px 26.273px ">oj</tspan>ect</text><text id="text590" x="290.67px" y="47.484px" style="font-family:'OpenSans-Light', 'Open Sans', sans-serif;font-weight:300;font-size:12px;">h t t p s : / /  t u r b i n e . a p a c h e . o r g /</text><clipPath id="_clip1"><rect id="asf_logo" x="0" y="0" width="124.549" height="51"/></clipPath><g clip-path="url(#_clip1)"><path d="M124.149,14.961c0.267,0.27 0.4,0.595 0.4,0.974c0,0.38 -0.133,0.704 -0.4,0.978c-0.267,0.272 -0.591,0.408 -0.971,0.408c-0.381,0 -0.703,-0.135 -0.969,-0.405c-0.263,-0.27 -0.396,-0.594 -0.396,-0.974c0,-0.379 0.133,-0.704 0.4,-0.977c0.267,-0.272 0.589,-0.408 0.968,-0.408c0.377,0 0.701,0.134 0.968,0.404Zm-0.115,1.837c0.232,-0.24 0.349,-0.526 0.349,-0.859c0,-0.334 -0.115,-0.618 -0.346,-0.856c-0.23,-0.237 -0.513,-0.355 -0.849,-0.355c-0.335,0 -0.619,0.118 -0.851,0.357c-0.232,0.238 -0.348,0.524 -0.348,0.859c0,0.335 0.116,0.621 0.345,0.858c0.228,0.236 0.512,0.354 0.847,0.354c0.336,0 0.619,-0.12 0.853,-0.358Zm-0.192,-1.126c0,0.247 -0.107,0.403 -0.322,0.466l0.393,0.538l-0.318,0l-0.355,-0.499l-0.325,0l0,0.499l-0.256,0l0,-1.492l0.555,0c0.224,0 0.385,0.038 0.483,0.116c0.097,0.078 0.145,0.201 0.145,0.372Zm-0.331,0.21c0.053,-0.042 0.077,-0.114 0.077,-0.211c0,-0.097 -0.026,-0.166 -0.078,-0.205c-0.053,-0.039 -0.147,-0.057 -0.28,-0.057l-0.315,0l0,0.539l0.306,0c0.142,-0.002 0.24,-0.023 0.29,-0.066Z" style="fill:#6d6e71;fill-rule:nonzero;"/><path d="M31.517,8.82l0,2.742l-0.35,0l0,-2.742l-0.993,0l0,-0.339l2.34,0l0,0.339l-0.997,0Z" style="fill:#6d6e71;fill-rule:nonzero;"/><path d="M36.385,11.562l0,-1.357l-1.838,0l0,1.357l-0.35,0l0,-3.083l0.35,0l0,1.393l1.838,0l0,-1.393l0.349,0l0,3.083l-0.349,0Z" style="fill:#6d6e71;fill-rule:nonzero;"/><path d="M39.167,8.82l0,1.013l1.539,0l0,0.339l-1.539,0l0,1.055l1.779,0l0,0.335l-2.129,0l0,-3.083l2.073,0l0,0.339l-1.723,0l0,0.002Z" style="fill:#6d6e71;fill-rule:nonzero;"/><path d="M27.513,32.689l7.292,-17.604l1.4,0l7.292,17.604l-1.842,0l-2.259,-5.504l-7.832,0l-2.235,5.504l-1.816,0Zm8.005,-15.571l-3.584,8.703l7.072,0l-3.488,-8.703Z" style="fill:#d22128;fill-rule:nonzero;"/><path d="M45.379,32.689l0,-17.604l7.218,0c2.995,0 5.157,2.802 5.157,5.529c0,2.876 -2.013,5.578 -5.008,5.578l-5.672,0l0,6.496l-1.695,0l0,0.001Zm1.695,-8.034l5.572,0c2.062,0 3.389,-1.91 3.389,-4.041c0,-2.208 -1.62,-3.992 -3.535,-3.992l-5.426,0l0,8.033Z" style="fill:#d22128;fill-rule:nonzero;"/><path d="M56.8,32.689l7.292,-17.604l1.4,0l7.292,17.604l-1.842,0l-2.26,-5.504l-7.832,0l-2.234,5.504l-1.816,0Zm8.005,-15.571l-3.584,8.703l7.072,0l-3.488,-8.703Z" style="fill:#d22128;fill-rule:nonzero;"/><path d="M81.033,14.984c3.093,0 5.353,1.587 6.432,3.844l-1.375,0.843c-1.104,-2.331 -3.266,-3.123 -5.156,-3.123c-4.175,0 -6.457,3.769 -6.457,7.314c0,3.893 2.824,7.414 6.53,7.414c1.964,0 4.272,-0.992 5.377,-3.274l1.424,0.743c-1.129,2.628 -4.224,4.091 -6.899,4.091c-4.788,0 -8.152,-4.611 -8.152,-9.074c0.002,-4.239 3.022,-8.778 8.276,-8.778Z" style="fill:#d22128;fill-rule:nonzero;"/><path d="M103.956,15.085l0,17.604l-1.72,0l0,-8.232l-10.336,0l0,8.232l-1.693,0l0,-17.604l1.693,0l0,7.835l10.336,0l0,-7.835l1.72,0Z" style="fill:#d22128;fill-rule:nonzero;"/><path d="M119.604,31.151l0,1.537l-11.711,0l0,-17.603l11.491,0l0,1.537l-9.796,0l0,6.347l8.545,0l0,1.463l-8.545,0l0,6.72l10.016,0l0,-0.001Z" style="fill:#d22128;fill-rule:nonzero;"/><path d="M29.14,36.416c0.206,0.062 0.388,0.147 0.542,0.251l-0.18,0.399c-0.158,-0.106 -0.325,-0.184 -0.505,-0.237c-0.179,-0.051 -0.35,-0.077 -0.511,-0.077c-0.237,0 -0.428,0.042 -0.569,0.129c-0.142,0.086 -0.213,0.208 -0.213,0.365c0,0.134 0.04,0.247 0.118,0.335c0.079,0.088 0.179,0.157 0.298,0.207c0.118,0.049 0.281,0.106 0.489,0.169c0.251,0.081 0.454,0.157 0.606,0.228c0.154,0.07 0.285,0.174 0.393,0.314c0.109,0.137 0.163,0.321 0.163,0.547c0,0.206 -0.056,0.385 -0.166,0.54c-0.11,0.153 -0.268,0.273 -0.468,0.358c-0.203,0.085 -0.436,0.127 -0.699,0.127c-0.264,0 -0.519,-0.051 -0.768,-0.153c-0.248,-0.103 -0.461,-0.24 -0.639,-0.413l0.187,-0.381c0.168,0.165 0.362,0.294 0.582,0.386c0.22,0.092 0.433,0.138 0.643,0.138c0.267,0 0.477,-0.053 0.631,-0.157c0.153,-0.105 0.23,-0.246 0.23,-0.422c0,-0.138 -0.04,-0.253 -0.12,-0.343c-0.081,-0.09 -0.18,-0.158 -0.299,-0.21c-0.119,-0.049 -0.281,-0.105 -0.489,-0.169c-0.249,-0.074 -0.449,-0.146 -0.605,-0.215c-0.156,-0.069 -0.287,-0.171 -0.393,-0.309c-0.107,-0.136 -0.161,-0.316 -0.161,-0.54c0,-0.192 0.052,-0.36 0.157,-0.505c0.105,-0.144 0.255,-0.257 0.448,-0.337c0.194,-0.079 0.416,-0.12 0.667,-0.12c0.215,0.002 0.423,0.034 0.631,0.095Z" style="fill:#6d6e71;fill-rule:nonzero;"/><path d="M34.601,36.579c0.293,0.166 0.527,0.393 0.699,0.677c0.171,0.286 0.258,0.599 0.258,0.941c0,0.344 -0.085,0.66 -0.258,0.946c-0.172,0.288 -0.406,0.513 -0.699,0.681c-0.294,0.168 -0.617,0.252 -0.965,0.252c-0.355,0 -0.678,-0.082 -0.973,-0.252c-0.294,-0.168 -0.528,-0.395 -0.699,-0.681c-0.171,-0.288 -0.259,-0.602 -0.259,-0.946c0,-0.344 0.086,-0.658 0.259,-0.944c0.171,-0.286 0.405,-0.512 0.699,-0.676c0.293,-0.166 0.618,-0.247 0.973,-0.247c0.348,-0.002 0.669,0.081 0.965,0.249Zm-1.716,0.351c-0.229,0.131 -0.413,0.309 -0.549,0.531c-0.136,0.223 -0.206,0.468 -0.206,0.736c0,0.27 0.068,0.517 0.206,0.741c0.136,0.224 0.32,0.403 0.549,0.533c0.229,0.131 0.479,0.196 0.749,0.196c0.271,0 0.519,-0.065 0.747,-0.196c0.227,-0.13 0.407,-0.307 0.543,-0.533c0.135,-0.224 0.203,-0.471 0.203,-0.741c0,-0.27 -0.068,-0.515 -0.203,-0.738c-0.135,-0.222 -0.316,-0.398 -0.543,-0.529c-0.228,-0.131 -0.476,-0.198 -0.745,-0.198c-0.271,0 -0.521,0.066 -0.751,0.198Z" style="fill:#6d6e71;fill-rule:nonzero;"/><path d="M38.207,36.748l0,1.306l1.72,0l0,0.41l-1.72,0l0,1.591l-0.421,0l0,-3.716l2.338,0l0,0.409l-1.917,0l0,0Z" style="fill:#6d6e71;fill-rule:nonzero;"/><path d="M43.539,36.748l0,3.307l-0.421,0l0,-3.307l-1.196,0l0,-0.409l2.821,0l0,0.409l-1.204,0Z" style="fill:#6d6e71;fill-rule:nonzero;"/><path d="M50.182,40.055l-0.992,-3.13l-1.007,3.13l-0.428,0l-1.232,-3.716l0.453,0l1.012,3.224l0.997,-3.219l0.422,-0.005l1.008,3.224l0.998,-3.224l0.437,0l-1.234,3.716l-0.434,0l0,0Z" style="fill:#6d6e71;fill-rule:nonzero;"/><path d="M53.948,39.116l-0.41,0.939l-0.448,0l1.65,-3.716l0.437,0l1.644,3.716l-0.456,0l-0.411,-0.939l-2.006,0Zm1,-2.294l-0.82,1.885l1.65,0l-0.83,-1.885Z" style="fill:#6d6e71;fill-rule:nonzero;"/><path d="M60.48,38.871c-0.105,0.007 -0.187,0.011 -0.246,0.011l-0.979,0l0,1.173l-0.419,0l0,-3.716l1.398,0c0.457,0 0.814,0.109 1.069,0.326c0.253,0.217 0.381,0.526 0.381,0.923c0,0.304 -0.072,0.56 -0.213,0.764c-0.142,0.205 -0.346,0.353 -0.612,0.442l0.86,1.261l-0.477,0l-0.762,-1.184Zm0.528,-0.619c0.18,-0.148 0.271,-0.367 0.271,-0.653c0,-0.281 -0.091,-0.493 -0.271,-0.635c-0.18,-0.143 -0.439,-0.216 -0.774,-0.216l-0.979,0l0,1.726l0.979,0c0.335,0 0.594,-0.074 0.774,-0.222Z" style="fill:#6d6e71;fill-rule:nonzero;"/><path d="M64.45,36.748l0,1.221l1.856,0l0,0.41l-1.856,0l0,1.272l2.146,0l0,0.404l-2.567,0l0,-3.716l2.497,0l0,0.409l-2.076,0l0,0Z" style="fill:#6d6e71;fill-rule:nonzero;"/><path d="M72.466,36.748l0,1.306l1.719,0l0,0.41l-1.719,0l0,1.591l-0.422,0l0,-3.716l2.339,0l0,0.409l-1.917,0l0,0Z" style="fill:#6d6e71;fill-rule:nonzero;"/><path d="M79.041,36.579c0.294,0.166 0.528,0.393 0.699,0.677c0.171,0.286 0.259,0.599 0.259,0.941c0,0.344 -0.086,0.66 -0.259,0.946c-0.171,0.288 -0.405,0.513 -0.699,0.681c-0.293,0.168 -0.617,0.252 -0.964,0.252c-0.355,0 -0.678,-0.082 -0.974,-0.252c-0.293,-0.168 -0.527,-0.395 -0.699,-0.681c-0.171,-0.288 -0.258,-0.602 -0.258,-0.946c0,-0.344 0.085,-0.658 0.258,-0.944c0.172,-0.286 0.406,-0.512 0.699,-0.676c0.294,-0.166 0.619,-0.247 0.974,-0.247c0.349,-0.002 0.671,0.081 0.964,0.249Zm-1.714,0.351c-0.229,0.131 -0.412,0.309 -0.549,0.531c-0.136,0.223 -0.206,0.468 -0.206,0.736c0,0.27 0.068,0.517 0.206,0.741c0.137,0.224 0.32,0.403 0.549,0.533c0.229,0.131 0.479,0.196 0.75,0.196c0.27,0 0.519,-0.065 0.746,-0.196c0.227,-0.13 0.407,-0.307 0.543,-0.533c0.135,-0.224 0.203,-0.471 0.203,-0.741c0,-0.27 -0.068,-0.515 -0.203,-0.738c-0.134,-0.222 -0.316,-0.398 -0.543,-0.529c-0.227,-0.131 -0.476,-0.198 -0.745,-0.198c-0.272,0 -0.522,0.066 -0.751,0.198Z" style="fill:#6d6e71;fill-rule:nonzero;"/><path d="M84.832,39.665c-0.274,0.274 -0.652,0.411 -1.132,0.411c-0.484,0 -0.863,-0.137 -1.138,-0.411c-0.274,-0.273 -0.412,-0.653 -0.412,-1.14l0,-2.188l0.421,0l0,2.188c0,0.359 0.101,0.637 0.302,0.839c0.203,0.201 0.477,0.301 0.827,0.301c0.351,0 0.625,-0.1 0.823,-0.3c0.199,-0.199 0.297,-0.48 0.297,-0.841l0,-2.189l0.421,0l0,2.189c0.002,0.488 -0.135,0.868 -0.409,1.141Z" style="fill:#6d6e71;fill-rule:nonzero;"/><path d="M90.333,40.055l-2.207,-2.984l0,2.984l-0.421,0l0,-3.716l0.437,0l2.207,2.987l0,-2.987l0.416,0l0,3.716l-0.432,0Z" style="fill:#6d6e71;fill-rule:nonzero;"/><path d="M95.731,36.584c0.286,0.164 0.514,0.387 0.68,0.669c0.167,0.282 0.249,0.598 0.249,0.944c0,0.346 -0.083,0.664 -0.249,0.946c-0.166,0.284 -0.395,0.506 -0.687,0.669c-0.29,0.162 -0.615,0.243 -0.97,0.243l-1.473,0l0,-3.716l1.489,0c0.354,0 0.674,0.081 0.961,0.245Zm-2.029,3.067l1.073,0c0.271,0 0.517,-0.062 0.739,-0.187c0.222,-0.125 0.399,-0.298 0.528,-0.52c0.129,-0.221 0.194,-0.468 0.194,-0.742c0,-0.273 -0.067,-0.518 -0.198,-0.739c-0.131,-0.221 -0.309,-0.394 -0.534,-0.522c-0.224,-0.127 -0.472,-0.193 -0.745,-0.193l-1.057,0l0,2.903Z" style="fill:#6d6e71;fill-rule:nonzero;"/><path d="M99.054,39.116l-0.41,0.939l-0.448,0l1.65,-3.716l0.437,0l1.644,3.716l-0.454,0l-0.411,-0.939l-2.008,0Zm1,-2.294l-0.82,1.885l1.65,0l-0.83,-1.885Z" style="fill:#6d6e71;fill-rule:nonzero;"/><path d="M104.688,36.748l0,3.307l-0.419,0l0,-3.307l-1.196,0l0,-0.409l2.821,0l0,0.409l-1.206,0Z" style="fill:#6d6e71;fill-rule:nonzero;"/><rect x="107.919" y="36.339" width="0.421" height="3.716" style="fill:#6d6e71;fill-rule:nonzero;"/><path d="M113.472,36.579c0.294,0.166 0.528,0.393 0.699,0.677c0.172,0.286 0.259,0.599 0.259,0.941c0,0.344 -0.086,0.66 -0.259,0.946c-0.171,0.288 -0.405,0.513 -0.699,0.681c-0.293,0.168 -0.616,0.252 -0.964,0.252c-0.355,0 -0.678,-0.082 -0.974,-0.252c-0.293,-0.168 -0.527,-0.395 -0.699,-0.681c-0.171,-0.288 -0.258,-0.602 -0.258,-0.946c0,-0.344 0.085,-0.658 0.258,-0.944c0.172,-0.286 0.406,-0.512 0.699,-0.676c0.294,-0.166 0.619,-0.247 0.974,-0.247c0.349,-0.002 0.671,0.081 0.964,0.249Zm-1.714,0.351c-0.229,0.131 -0.412,0.309 -0.549,0.531c-0.136,0.223 -0.206,0.468 -0.206,0.736c0,0.27 0.068,0.517 0.206,0.741c0.137,0.224 0.32,0.403 0.549,0.533c0.229,0.131 0.479,0.196 0.75,0.196c0.271,0 0.519,-0.065 0.746,-0.196c0.227,-0.13 0.407,-0.307 0.543,-0.533c0.135,-0.224 0.203,-0.471 0.203,-0.741c0,-0.27 -0.068,-0.515 -0.203,-0.738c-0.134,-0.222 -0.316,-0.398 -0.543,-0.529c-0.227,-0.131 -0.475,-0.198 -0.744,-0.198c-0.273,0 -0.521,0.066 -0.752,0.198Z" style="fill:#6d6e71;fill-rule:nonzero;"/><path d="M119.288,40.055l-2.207,-2.984l0,2.984l-0.421,0l0,-3.716l0.436,0l2.207,2.987l0,-2.987l0.416,0l0,3.716l-0.431,0Z" style="fill:#6d6e71;fill-rule:nonzero;"/><path d="M21.495,0.242c-0.792,0.473 -2.107,1.809 -3.678,3.746l1.443,2.751c1.014,-1.463 2.043,-2.779 3.081,-3.903c0.08,-0.09 0.122,-0.132 0.122,-0.132c-0.04,0.044 -0.08,0.088 -0.122,0.132c-0.336,0.374 -1.354,1.574 -2.892,3.96c1.48,-0.074 3.755,-0.381 5.611,-0.701c0.552,-3.123 -0.542,-4.553 -0.542,-4.553c0,0 -1.393,-2.273 -3.023,-1.3Z" style="fill:url(#_Linear2);fill-rule:nonzero;"/><path d="M19.05,15.937c0.011,-0.002 0.021,-0.003 0.032,-0.005l-0.208,0.023c-0.012,0.005 -0.025,0.012 -0.037,0.017c0.072,-0.012 0.143,-0.024 0.213,-0.035Z" style="fill:none;"/><path d="M17.577,20.864c-0.117,0.027 -0.239,0.048 -0.361,0.065c0.124,-0.017 0.244,-0.038 0.361,-0.065Z" style="fill:none;"/><path d="M7.565,31.92c0.015,-0.041 0.031,-0.083 0.045,-0.124c0.318,-0.847 0.633,-1.671 0.944,-2.472c0.349,-0.9 0.695,-1.772 1.036,-2.617c0.36,-0.889 0.715,-1.751 1.064,-2.582c0.367,-0.871 0.729,-1.711 1.083,-2.52c0.289,-0.658 0.574,-1.295 0.855,-1.911c0.094,-0.206 0.187,-0.409 0.28,-0.61c0.183,-0.401 0.366,-0.791 0.546,-1.174c0.166,-0.353 0.332,-0.699 0.495,-1.038c0.054,-0.113 0.108,-0.226 0.162,-0.337c0.009,-0.017 0.018,-0.035 0.027,-0.054l-0.179,0.019l-0.139,-0.281c-0.014,0.029 -0.028,0.055 -0.042,0.082c-0.254,0.508 -0.505,1.021 -0.753,1.538c-0.144,0.299 -0.287,0.6 -0.43,0.9c-0.395,0.837 -0.783,1.68 -1.164,2.529c-0.386,0.858 -0.764,1.721 -1.134,2.586c-0.364,0.848 -0.722,1.697 -1.07,2.544c-0.349,0.847 -0.69,1.689 -1.022,2.527c-0.348,0.874 -0.685,1.742 -1.013,2.598c-0.074,0.192 -0.149,0.386 -0.222,0.579c-0.262,0.692 -0.519,1.373 -0.769,2.047l0.222,0.443l0.199,-0.021c0.007,-0.02 0.014,-0.041 0.023,-0.06c0.323,-0.886 0.641,-1.751 0.956,-2.591Z" style="fill:none;"/><path d="M17.125,20.944c0.001,0 0.001,0 0.001,-0.002c0,0.002 0,0.002 -0.001,0.002Z" style="fill:none;"/><path d="M16.646,23.347c-0.185,0.034 -0.374,0.067 -0.568,0.101c-0.002,0 -0.002,0.001 -0.003,0.001c0.097,-0.014 0.195,-0.03 0.29,-0.045c0.096,-0.018 0.188,-0.038 0.281,-0.057Z" style="fill:#be202e;fill-rule:nonzero;"/><path d="M16.646,23.347c-0.185,0.034 -0.374,0.067 -0.568,0.101c-0.002,0 -0.002,0.001 -0.003,0.001c0.097,-0.014 0.195,-0.03 0.29,-0.045c0.096,-0.018 0.188,-0.038 0.281,-0.057Z" style="fill:#be202e;fill-opacity:0.35;fill-rule:nonzero;"/><path d="M17.13,20.942c-0.002,0 -0.002,0 0,0c-0.002,0.002 -0.004,0.002 -0.004,0.002c0.032,-0.004 0.062,-0.009 0.091,-0.015c0.123,-0.017 0.243,-0.038 0.362,-0.065c-0.148,0.027 -0.297,0.051 -0.449,0.078Z" style="fill:#be202e;fill-rule:nonzero;"/><path d="M17.13,20.942c-0.002,0 -0.002,0 0,0c-0.002,0.002 -0.004,0.002 -0.004,0.002c0.032,-0.004 0.062,-0.009 0.091,-0.015c0.123,-0.017 0.243,-0.038 0.362,-0.065c-0.148,0.027 -0.297,0.051 -0.449,0.078Z" style="fill:#be202e;fill-opacity:0.35;fill-rule:nonzero;"/><path d="M15.003,13.848c0.439,-0.828 0.883,-1.638 1.332,-2.425c0.466,-0.819 0.938,-1.611 1.414,-2.377c0.028,-0.046 0.055,-0.092 0.083,-0.136c0.472,-0.754 0.948,-1.477 1.426,-2.169l-1.443,-2.753c-0.108,0.134 -0.218,0.27 -0.329,0.41c-0.415,0.524 -0.849,1.087 -1.291,1.685c-0.5,0.674 -1.013,1.392 -1.534,2.148c-0.482,0.697 -0.97,1.427 -1.459,2.183c-0.416,0.644 -0.834,1.305 -1.248,1.985c-0.016,0.025 -0.031,0.051 -0.045,0.076l1.878,3.746c0.399,-0.805 0.806,-1.597 1.216,-2.373Z" style="fill:url(#_Linear3);fill-rule:nonzero;"/><path d="M6.448,34.959c-0.248,0.69 -0.498,1.392 -0.75,2.11c-0.003,0.011 -0.007,0.022 -0.01,0.032c-0.035,0.101 -0.072,0.203 -0.107,0.304c-0.169,0.483 -0.314,0.919 -0.652,1.909c0.554,0.256 0.998,0.927 1.418,1.687c-0.046,-0.789 -0.367,-1.528 -0.982,-2.102c2.727,0.124 5.078,-0.571 6.292,-2.587c0.108,-0.18 0.208,-0.368 0.297,-0.568c-0.552,0.708 -1.237,1.008 -2.525,0.935c-0.003,0.002 -0.005,0.002 -0.009,0.004c0.004,-0.002 0.006,-0.002 0.009,-0.004c1.898,-0.857 2.85,-1.681 3.691,-3.045c0.199,-0.323 0.393,-0.678 0.59,-1.07c-1.658,1.721 -3.582,2.211 -5.607,1.839l-1.519,0.168c-0.042,0.128 -0.089,0.257 -0.136,0.388Z" style="fill:url(#_Linear4);fill-rule:nonzero;"/><path d="M7.157,31.523c0.329,-0.856 0.666,-1.724 1.014,-2.598c0.332,-0.836 0.673,-1.68 1.022,-2.527c0.35,-0.847 0.706,-1.696 1.07,-2.544c0.37,-0.865 0.749,-1.726 1.134,-2.586c0.381,-0.849 0.769,-1.692 1.163,-2.529c0.142,-0.301 0.285,-0.601 0.43,-0.9c0.248,-0.517 0.5,-1.03 0.753,-1.538c0.014,-0.029 0.028,-0.055 0.042,-0.082l-1.878,-3.746c-0.032,0.051 -0.061,0.102 -0.093,0.152c-0.438,0.721 -0.873,1.459 -1.3,2.213c-0.431,0.76 -0.856,1.537 -1.27,2.324c-0.35,0.663 -0.692,1.334 -1.024,2.01c-0.067,0.137 -0.133,0.273 -0.198,0.409c-0.408,0.851 -0.779,1.673 -1.113,2.462c-0.379,0.895 -0.711,1.751 -1.004,2.561c-0.193,0.532 -0.367,1.048 -0.526,1.542c-0.131,0.423 -0.257,0.845 -0.376,1.267c-0.28,0.993 -0.523,1.983 -0.72,2.97l1.885,3.766c0.25,-0.673 0.505,-1.355 0.769,-2.047c0.072,-0.193 0.147,-0.385 0.22,-0.579Z" style="fill:url(#_Linear5);fill-rule:nonzero;"/><path d="M4.255,30.519c-0.238,1.203 -0.405,2.403 -0.489,3.596c-0.004,0.043 -0.007,0.083 -0.009,0.126c-0.589,-0.953 -2.167,-1.885 -2.163,-1.875c1.128,1.654 1.986,3.295 2.112,4.906c-0.604,0.126 -1.433,-0.056 -2.39,-0.411c0.998,0.927 1.747,1.183 2.039,1.251c-0.917,0.059 -1.871,0.694 -2.833,1.426c1.407,-0.579 2.543,-0.808 3.357,-0.623c-1.291,3.689 -2.584,7.761 -3.879,12.085c0.397,-0.118 0.633,-0.386 0.767,-0.752c0.231,-0.783 1.762,-5.922 4.159,-12.674c0.068,-0.192 0.136,-0.385 0.206,-0.58c0.019,-0.053 0.039,-0.108 0.058,-0.163c0.253,-0.707 0.515,-1.431 0.788,-2.169c0.061,-0.167 0.124,-0.335 0.187,-0.504c0.002,-0.004 0.002,-0.007 0.003,-0.011l-1.885,-3.762c-0.009,0.046 -0.019,0.09 -0.028,0.134Z" style="fill:url(#_Linear6);fill-rule:nonzero;"/><path d="M14.077,16.535c-0.054,0.111 -0.108,0.224 -0.162,0.337c-0.163,0.339 -0.329,0.685 -0.495,1.038c-0.18,0.383 -0.362,0.775 -0.547,1.174c-0.092,0.201 -0.185,0.404 -0.279,0.61c-0.282,0.618 -0.566,1.255 -0.855,1.911c-0.355,0.809 -0.716,1.649 -1.083,2.52c-0.35,0.831 -0.704,1.693 -1.064,2.582c-0.341,0.845 -0.687,1.717 -1.037,2.617c-0.311,0.801 -0.627,1.625 -0.943,2.472c-0.016,0.041 -0.032,0.083 -0.046,0.124c-0.314,0.84 -0.632,1.705 -0.954,2.591c-0.007,0.019 -0.014,0.04 -0.022,0.06l1.518,-0.168c-0.03,-0.005 -0.061,-0.009 -0.091,-0.016c1.816,-0.229 4.231,-1.599 5.791,-3.291c0.718,-0.78 1.372,-1.7 1.975,-2.776c0.449,-0.801 0.87,-1.691 1.272,-2.674c0.351,-0.859 0.688,-1.789 1.013,-2.798c-0.417,0.222 -0.894,0.384 -1.422,0.497c-0.093,0.02 -0.187,0.039 -0.281,0.055c-0.097,0.018 -0.193,0.032 -0.29,0.046c0.001,0 0.001,-0.002 0.003,-0.002c1.693,-0.658 2.761,-1.927 3.537,-3.483c-0.446,0.307 -1.169,0.707 -2.038,0.901c-0.117,0.027 -0.239,0.048 -0.361,0.066c-0.03,0.005 -0.062,0.01 -0.091,0.014c0.001,0 0.001,0 0.001,-0.002l0.002,0c0.587,-0.249 1.084,-0.526 1.513,-0.854c0.093,-0.071 0.182,-0.143 0.268,-0.217c0.131,-0.115 0.257,-0.235 0.376,-0.362c0.076,-0.081 0.15,-0.164 0.221,-0.251c0.168,-0.202 0.327,-0.421 0.474,-0.658c0.045,-0.072 0.089,-0.146 0.133,-0.222c0.056,-0.11 0.11,-0.217 0.162,-0.323c0.236,-0.48 0.427,-0.909 0.577,-1.285c0.075,-0.187 0.142,-0.362 0.197,-0.524c0.023,-0.065 0.044,-0.127 0.065,-0.187c0.06,-0.18 0.108,-0.341 0.147,-0.482c0.058,-0.211 0.092,-0.379 0.112,-0.501c-0.058,0.046 -0.124,0.092 -0.198,0.136c-0.512,0.309 -1.389,0.589 -2.095,0.72l1.395,-0.155l-1.395,0.155c-0.01,0.002 -0.021,0.004 -0.031,0.005c-0.07,0.013 -0.142,0.023 -0.214,0.036c0.013,-0.006 0.025,-0.013 0.037,-0.018l-4.77,0.528c-0.007,0.019 -0.016,0.037 -0.025,0.054Z" style="fill:url(#_Linear7);fill-rule:nonzero;"/><path d="M19.447,6.796c-0.425,0.658 -0.888,1.405 -1.387,2.25c-0.027,0.044 -0.053,0.09 -0.079,0.134c-0.43,0.732 -0.888,1.537 -1.368,2.418c-0.416,0.76 -0.848,1.576 -1.299,2.453c-0.391,0.764 -0.796,1.574 -1.212,2.431l4.77,-0.527c1.389,-0.646 2.011,-1.23 2.614,-2.076c0.161,-0.233 0.322,-0.476 0.481,-0.728c0.489,-0.773 0.971,-1.624 1.4,-2.469c0.414,-0.817 0.781,-1.627 1.06,-2.356c0.178,-0.464 0.322,-0.897 0.421,-1.276c0.088,-0.335 0.156,-0.651 0.208,-0.955c-1.852,0.32 -4.129,0.627 -5.609,0.701Z" style="fill:url(#_Linear8);fill-rule:nonzero;"/><path d="M16.365,23.402c-0.097,0.017 -0.193,0.032 -0.29,0.046c0.097,-0.013 0.193,-0.029 0.29,-0.046Z" style="fill:#be202e;fill-rule:nonzero;"/><path d="M16.365,23.402c-0.097,0.017 -0.193,0.032 -0.29,0.046c0.097,-0.013 0.193,-0.029 0.29,-0.046Z" style="fill:#be202e;fill-opacity:0.35;fill-rule:nonzero;"/><path d="M16.365,23.402c-0.097,0.017 -0.193,0.032 -0.29,0.046c0.097,-0.013 0.193,-0.029 0.29,-0.046Z" style="fill:url(#_Linear9);fill-rule:nonzero;"/><path d="M17.125,20.944c0.031,-0.004 0.061,-0.009 0.091,-0.015c-0.03,0.006 -0.06,0.011 -0.091,0.015Z" style="fill:#be202e;fill-rule:nonzero;"/><path d="M17.125,20.944c0.031,-0.004 0.061,-0.009 0.091,-0.015c-0.03,0.006 -0.06,0.011 -0.091,0.015Z" style="fill:#be202e;fill-opacity:0.35;fill-rule:nonzero;"/><path d="M17.125,20.944c0.031,-0.004 0.061,-0.009 0.091,-0.015c-0.03,0.006 -0.06,0.011 -0.091,0.015Z" style="fill:url(#_Linear10);fill-rule:nonzero;"/><path d="M17.128,20.942l0,0Z" style="fill:#be202e;fill-rule:nonzero;"/><path d="M17.128,20.942l0,0Z" style="fill:#be202e;fill-opacity:0.35;fill-rule:nonzero;"/><path d="M17.128,20.942l0,0Z" style="fill:url(#_Linear11);fill-rule:nonzero;"/></g><defs><linearGradient id="_Linear2" x1="0" y1="0" x2="1" y2="0" gradientUnits="userSpaceOnUse" gradientTransform="matrix(10.5738,-2.96891,2.93983,10.6783,19.0394,4.32582)"><stop offset="0" style="stop-color:#f69923;stop-opacity:1"/><stop offset="0.31" style="stop-color:#f79a23;stop-opacity:1"/><stop offset="0.84" style="stop-color:#e97826;stop-opacity:1"/><stop offset="1" style="stop-color:#e97826;stop-opacity:1"/></linearGradient><linearGradient id="_Linear3" x1="0" y1="0" x2="1" y2="0" gradientUnits="userSpaceOnUse" gradientTransform="matrix(21.5063,-46.5783,46.1221,21.7191,-4.10472,52.2513)"><stop offset="0" style="stop-color:#9e2064;stop-opacity:1"/><stop offset="0.32" style="stop-color:#9e2064;stop-opacity:1"/><stop offset="0.63" style="stop-color:#c92037;stop-opacity:1"/><stop offset="0.75" style="stop-color:#cd2335;stop-opacity:1"/><stop offset="1" style="stop-color:#e97826;stop-opacity:1"/></linearGradient><linearGradient id="_Linear4" x1="0" y1="0" x2="1" y2="0" gradientUnits="userSpaceOnUse" gradientTransform="matrix(12.8157,-27.7561,27.4843,12.9424,3.11736,48.807)"><stop offset="0" style="stop-color:#282662;stop-opacity:1"/><stop offset="0.1" style="stop-color:#662e8d;stop-opacity:1"/><stop offset="0.79" style="stop-color:#9f2064;stop-opacity:1"/><stop offset="0.95" style="stop-color:#cd2032;stop-opacity:1"/><stop offset="1" style="stop-color:#cd2032;stop-opacity:1"/></linearGradient><linearGradient id="_Linear5" x1="0" y1="0" x2="1" y2="0" gradientUnits="userSpaceOnUse" gradientTransform="matrix(21.5063,-46.5783,46.1221,21.7191,-3.32659,49.4328)"><stop offset="0" style="stop-color:#9e2064;stop-opacity:1"/><stop offset="0.32" style="stop-color:#9e2064;stop-opacity:1"/><stop offset="0.63" style="stop-color:#c92037;stop-opacity:1"/><stop offset="0.75" style="stop-color:#cd2335;stop-opacity:1"/><stop offset="1" style="stop-color:#e97826;stop-opacity:1"/></linearGradient><linearGradient id="_Linear6" x1="0" y1="0" x2="1" y2="0" gradientUnits="userSpaceOnUse" gradientTransform="matrix(11.3022,-24.4783,24.2385,11.414,-1.1341,46.3296)"><stop offset="0" style="stop-color:#282662;stop-opacity:1"/><stop offset="0.1" style="stop-color:#662e8d;stop-opacity:1"/><stop offset="0.79" style="stop-color:#9f2064;stop-opacity:1"/><stop offset="0.95" style="stop-color:#cd2032;stop-opacity:1"/><stop offset="1" style="stop-color:#cd2032;stop-opacity:1"/></linearGradient><linearGradient id="_Linear7" x1="0" y1="0" x2="1" y2="0" gradientUnits="userSpaceOnUse" gradientTransform="matrix(21.5063,-46.5783,46.1221,21.7191,1.44688,51.6806)"><stop offset="0" style="stop-color:#9e2064;stop-opacity:1"/><stop offset="0.32" style="stop-color:#9e2064;stop-opacity:1"/><stop offset="0.63" style="stop-color:#c92037;stop-opacity:1"/><stop offset="0.75" style="stop-color:#cd2335;stop-opacity:1"/><stop offset="1" style="stop-color:#e97826;stop-opacity:1"/></linearGradient><linearGradient id="_Linear8" x1="0" y1="0" x2="1" y2="0" gradientUnits="userSpaceOnUse" gradientTransform="matrix(21.5063,-46.5783,46.1221,21.7191,-0.124266,54.4584)"><stop offset="0" style="stop-color:#9e2064;stop-opacity:1"/><stop offset="0.32" style="stop-color:#9e2064;stop-opacity:1"/><stop offset="0.63" style="stop-color:#c92037;stop-opacity:1"/><stop offset="0.75" style="stop-color:#cd2335;stop-opacity:1"/><stop offset="1" style="stop-color:#e97826;stop-opacity:1"/></linearGradient><linearGradient id="_Linear9" x1="0" y1="0" x2="1" y2="0" gradientUnits="userSpaceOnUse" gradientTransform="matrix(21.5063,-46.5783,46.1221,21.719,2.8666,52.3492)"><stop offset="0" style="stop-color:#9e2064;stop-opacity:1"/><stop offset="0.32" style="stop-color:#9e2064;stop-opacity:1"/><stop offset="0.63" style="stop-color:#c92037;stop-opacity:1"/><stop offset="0.75" style="stop-color:#cd2335;stop-opacity:1"/><stop offset="1" style="stop-color:#e97826;stop-opacity:1"/></linearGradient><linearGradient id="_Linear10" x1="0" y1="0" x2="1" y2="0" gradientUnits="userSpaceOnUse" gradientTransform="matrix(21.5063,-46.5783,46.1221,21.719,2.70415,52.2727)"><stop offset="0" style="stop-color:#9e2064;stop-opacity:1"/><stop offset="0.32" style="stop-color:#9e2064;stop-opacity:1"/><stop offset="0.63" style="stop-color:#c92037;stop-opacity:1"/><stop offset="0.75" style="stop-color:#cd2335;stop-opacity:1"/><stop offset="1" style="stop-color:#e97826;stop-opacity:1"/></linearGradient><linearGradient id="_Linear11" x1="0" y1="0" x2="1" y2="0" gradientUnits="userSpaceOnUse" gradientTransform="matrix(4.7536,-10.2953,10.1945,4.80062,14.7535,26.0904)"><stop offset="0" style="stop-color:#9e2064;stop-opacity:1"/><stop offset="0.32" style="stop-color:#9e2064;stop-opacity:1"/><stop offset="0.63" style="stop-color:#c92037;stop-opacity:1"/><stop offset="0.75" style="stop-color:#cd2335;stop-opacity:1"/><stop offset="1" style="stop-color:#e97826;stop-opacity:1"/></linearGradient></defs></svg>